<?xml version="1.0" encoding="UTF-8" standalone="no"?>
<svg width="31px" height="30px" viewBox="0 0 31 30" version="1.1" xmlns="http://www.w3.org/2000/svg" xmlns:xlink="http://www.w3.org/1999/xlink" xmlns:sketch="http://www.bohemiancoding.com/sketch/ns">
    <!-- Generator: Sketch 3.1 (8751) - http://www.bohemiancoding.com/sketch -->
    <title>Dribbble</title>
    <desc>Created with Sketch.</desc>
    <defs></defs>
    <g id="Page-1" stroke="none" stroke-width="1" fill="none" fill-rule="evenodd" sketch:type="MSPage">
        <g id="free-flat-social-icons" sketch:type="MSLayerGroup" transform="translate(-158.000000, 0.000000)">
            <g id="Page-1" sketch:type="MSShapeGroup">
                <g id="Colour">
                    <g id="Row-1">
                        <g id="Dribbble" transform="translate(158.000000, 0.000000)">
                            <path d="M0.11416185,15 C0.11416185,6.71572835 6.839595,0 15.1358381,0 C23.4320813,0 30.1575145,6.71572835 30.1575145,15 C30.1575145,23.2842717 23.4320813,30 15.1358381,30 C6.839595,30 0.11416185,23.2842717 0.11416185,15 L0.11416185,15 Z" id="Shape" fill="#EA4C89"></path>
                            <path d="M20.05912,9.4241548 C18.7691639,8.28833245 17.0753933,7.5993679 15.2202985,7.5993679 C14.6249703,7.5993679 14.0472387,7.67132925 13.4938199,7.8043538 C13.6035634,7.95162975 14.9798233,9.77474 16.2328736,12.0722385 C18.9975163,11.0372827 20.0410869,9.45091395 20.05912,9.4241548 L20.05912,9.4241548 Z M23.8002379,14.9153154 C23.8002379,15.4955331 23.7411686,16.074946 23.6251454,16.6397387 C23.5120101,17.1911182 23.3444398,17.7324379 23.1249192,18.2499157 C22.9104358,18.7582392 22.6444053,19.248086 22.3335437,19.7049031 C22.0273164,20.1588364 21.6745455,20.5847027 21.287018,20.9729117 C20.898651,21.3594441 20.4713297,21.7112365 20.0176136,22.0187656 C19.5592968,22.3274684 19.0687421,22.5931151 18.5601206,22.8085967 C18.041895,23.0269622 17.4993229,23.1942908 16.9484227,23.3072292 C16.382881,23.4235544 15.8013547,23.4829409 15.2202985,23.4829409 C14.6388058,23.4829409 14.0573131,23.4235544 13.4925774,23.3072292 C12.9408376,23.1942908 12.3982991,23.0269622 11.8804764,22.8085967 C11.3718886,22.5931151 10.8808637,22.3274684 10.4225469,22.0187656 C9.96883085,21.71127 9.54150955,21.3594441 9.15398205,20.9729117 C8.7660516,20.5847027 8.4132807,20.1588364 8.1066168,19.7049031 C7.79743435,19.248086 7.5309672,18.7582056 7.3156443,18.2499157 C7.09609015,17.7324379 6.9281168,17.1910846 6.81457865,16.6397387 C6.69979795,16.074946 6.64113155,15.4955331 6.64113155,14.9153154 C6.64113155,14.3346618 6.6997644,13.7540081 6.81461225,13.1904561 C6.9281504,12.6390766 7.09612375,12.0969186 7.3156779,11.5802791 C7.5310008,11.0715868 7.79746795,10.581304 8.1066504,10.1244534 C8.41331425,9.67015125 8.7660852,9.24508975 9.15401565,8.8564448 C9.54154315,8.4698789 9.9688644,8.1189248 10.4225805,7.81186515 C10.8808973,7.5018546 11.3719221,7.2362414 11.88051,7.02035735 C12.3983327,6.80152245 12.9408376,6.63379145 13.492611,6.5216914 C14.0573466,6.406238 14.6388394,6.34765625 15.2203321,6.34765625 C15.8013883,6.34765625 16.382881,6.406238 16.9484563,6.5216914 C17.4993565,6.633825 18.041895,6.801556 18.5601542,7.02035735 C19.0687421,7.2362079 19.5593304,7.5018546 20.0176472,7.81186515 C20.4713633,8.1189248 20.8987181,8.4698789 21.2870516,8.8564448 C21.6745791,9.24508975 22.02735,9.67015125 22.3335773,10.1244534 C22.6444053,10.581304 22.9104358,11.0716203 23.1249192,11.5802791 C23.3444398,12.0969186 23.5120101,12.6390766 23.6251454,13.1904561 C23.7411686,13.7540081 23.8002379,14.3346618 23.8002379,14.9153154 L23.8002379,14.9153154 Z M16.5156613,16.0958704 C16.4993408,16.1012693 16.4830203,16.1059303 16.4670692,16.111765 C12.1440451,17.6166608 10.732303,20.6494576 10.7170286,20.6825643 C11.9609035,21.6484966 13.5210543,22.2312628 15.2202986,22.2312628 C16.2349557,22.2312628 17.2014573,22.0249692 18.0808157,21.6514475 C17.9723147,21.0122121 17.5466724,18.7715852 16.5156613,16.0958704 L16.5156613,16.0958704 Z M15.421786,13.6402314 C11.6492024,14.7680394 8.02907775,14.6868901 7.8992191,14.6818936 C7.89710345,14.760528 7.89334235,14.8366474 7.89334235,14.9153154 C7.89334235,16.7948948 8.60345125,18.50842 9.77063435,19.8040596 C9.76811575,19.8002703 11.7732179,16.2481428 15.7272073,14.9713822 C15.8227124,14.9395931 15.9199301,14.9111237 16.0162746,14.8835263 C15.8323838,14.4677198 15.6316687,14.0510414 15.421786,13.6402314 L15.421786,13.6402314 Z M19.3146575,20.982938 C20.959836,19.8743443 22.1282616,18.1139738 22.4542011,16.0749124 C22.3033878,16.0263905 20.2534882,15.3783695 17.8885295,15.7569881 C18.8495909,18.3942408 19.2400736,20.5420155 19.3146575,20.982938 L19.3146575,20.982938 Z M12.0941203,8.29755395 C10.0509034,9.2610178 8.52594575,11.1410332 8.0504354,13.4067762 C8.2435947,13.4084528 11.2968681,13.4469484 14.8147379,12.513597 C13.5466096,10.2637485 12.1917409,8.42769465 12.0941203,8.29755395 L12.0941203,8.29755395 Z M16.7968034,13.1624563 C16.9668588,13.5113649 17.1315412,13.8664771 17.2835971,14.2233665 C17.3376629,14.3513946 17.3904525,14.4769078 17.4419661,14.6023875 C19.9589807,14.2861062 22.4387202,14.818238 22.5447361,14.8399672 C22.5279791,13.1055512 21.906659,11.5137501 20.878603,10.2675378 C20.8647675,10.2871544 19.6896256,11.982706 16.7968034,13.1624563 L16.7968034,13.1624563 Z" id="Path" fill="#FFFFFF"></path>
                            <path d="M30.1575145,15 C30.1575145,23.2842717 23.4320813,30 15.1358382,30 C12.0589581,30 9.19814175,29.0762567 6.8164066,27.4913877 L24.0286858,2.90970551 C27.7455673,5.64032515 30.1575145,10.0388987 30.1575145,15 L30.1575145,15 Z" id="reflec" fill-opacity="0.08" fill="#000000"></path>
                        </g>
                    </g>
                </g>
            </g>
        </g>
    </g>
</svg>