<?xml version="1.0" encoding="UTF-8" standalone="no"?>
<svg width="31px" height="30px" viewBox="0 0 31 30" version="1.1" xmlns="http://www.w3.org/2000/svg" xmlns:xlink="http://www.w3.org/1999/xlink" xmlns:sketch="http://www.bohemiancoding.com/sketch/ns">
    <!-- Generator: Sketch 3.1 (8751) - http://www.bohemiancoding.com/sketch -->
    <title>Github</title>
    <desc>Created with Sketch.</desc>
    <defs></defs>
    <g id="Page-1" stroke="none" stroke-width="1" fill="none" fill-rule="evenodd" sketch:type="MSPage">
        <g id="free-flat-social-icons" sketch:type="MSLayerGroup" transform="translate(-237.000000, 0.000000)">
            <g id="Page-1" sketch:type="MSShapeGroup">
                <g id="Colour">
                    <g id="Row-1">
                        <g id="Github" transform="translate(237.000000, 0.000000)">
                            <path d="M0.171242774,15 C0.171242774,6.71572835 6.89667595,0 15.1929191,0 C23.4891622,0 30.2145954,6.71572835 30.2145954,15 C30.2145954,23.2842717 23.4891622,30 15.1929191,30 C6.89667595,30 0.171242774,23.2842717 0.171242774,15 L0.171242774,15 Z" id="Shape" fill="#333333"></path>
                            <path d="M9.26103245,15.9677783 C9.9668157,17.2253951 11.3279691,18.0078382 13.6237038,18.2242587 C13.2960187,18.4682668 12.9024087,18.9315492 12.8481178,19.4671304 C12.4360877,19.7287375 11.6076649,19.81483 10.9634437,19.615533 C10.0608555,19.3358512 9.715235,17.5821321 8.3637764,17.831848 C8.07099265,17.886072 8.1291616,18.0753805 8.38219655,18.2361499 C8.7942266,18.4977571 9.1820196,18.8250038 9.481105,19.52183 C9.71087235,20.0569355 10.1936747,21.0129906 11.7206096,21.0129906 C12.3265362,21.0129906 12.7511695,20.9416432 12.7511695,20.9416432 C12.7511695,20.9416432 12.7628033,22.3072325 12.7628033,22.8380571 C12.7628033,23.4502178 11.9208077,23.6228785 11.9208077,23.9173054 C11.9208077,24.0338395 12.1995339,24.0447794 12.4234844,24.0447794 C12.8660532,24.0447794 13.7870616,23.6823347 13.7870616,23.0459159 C13.7870616,22.5403006 13.7953021,20.84033 13.7953021,20.5430491 C13.7953021,19.8928365 14.1506175,19.6868804 14.1506175,19.6868804 C14.1506175,19.6868804 14.194729,23.1576935 14.0657878,23.6228785 C13.9145485,24.1698752 13.6416392,24.0923444 13.6416392,24.3363524 C13.6416392,24.6992729 14.7502425,24.4252989 15.1176763,23.6285863 C15.4017347,23.0083396 15.2776409,19.6036417 15.2776409,19.6036417 L15.5806042,19.5974583 C15.5806042,19.5974583 15.5975701,21.1561611 15.5873906,21.8686838 C15.5767263,22.6064159 15.5258285,23.5396399 15.9722751,23.9796155 C16.2655436,24.2688103 17.216606,24.7763281 17.216606,24.31257 C17.216606,24.0428768 16.6955091,23.8212243 16.6955091,23.0915782 L16.6955091,19.7344453 C17.1114171,19.7344453 17.0488855,20.8384274 17.0488855,20.8384274 L17.0794242,22.8894272 C17.0794242,22.8894272 16.9878081,23.6366723 17.9029996,23.9496496 C18.2258373,24.0604759 18.9170783,24.0904418 18.949556,23.9044629 C18.9820336,23.7180084 18.1172552,23.4407048 18.1094994,22.8618395 C18.104652,22.5089077 18.1254958,22.3029516 18.1254958,20.7689826 C18.1254958,19.2350135 17.9156028,18.6680395 17.1841283,18.2161727 C19.4415684,17.9883366 20.8385926,17.440341 21.5196541,15.9725348 C21.5728339,15.9742483 21.7969007,15.2868871 21.7678417,15.2871241 C21.9205351,14.7329927 22.0029412,14.0775479 22.0194223,13.3012882 C22.0155444,11.19654 20.9888624,10.4521488 20.7915728,10.1025465 C21.0824175,8.50912125 20.7430986,7.78375605 20.5855577,7.53499145 C20.0038682,7.3318892 18.5617629,8.0572544 17.7740584,8.5685774 C16.4894941,8.1999492 13.774943,8.2356229 12.7569864,8.6637073 C10.878614,7.3437804 9.88489445,7.5459314 9.88489445,7.5459314 C9.88489445,7.5459314 9.2426123,8.6755985 9.715235,10.3284799 C9.0971899,11.1014101 8.6366857,11.6484068 8.6366857,13.0981859 C8.6366857,13.9148758 8.73460345,14.6459488 8.95564545,15.2842702 C8.9285485,15.2842047 9.2520984,15.9679889 9.26103245,15.9677783 L9.26103245,15.9677783 Z" id="Path" fill="#FFFFFF"></path>
                            <path d="M30.2145954,15 C30.2145954,23.2842717 23.4891622,30 15.1929191,30 C12.116039,30 9.25522265,29.0762567 6.8734875,27.4913877 L24.0857667,2.90970551 C27.8026482,5.64032515 30.2145954,10.0388987 30.2145954,15 L30.2145954,15 Z" id="reflec" fill-opacity="0.08" fill="#000000"></path>
                        </g>
                    </g>
                </g>
            </g>
        </g>
    </g>
</svg>