<?xml version="1.0" encoding="UTF-8" standalone="no"?>
<svg width="31px" height="30px" viewBox="0 0 31 30" version="1.1" xmlns="http://www.w3.org/2000/svg" xmlns:xlink="http://www.w3.org/1999/xlink" xmlns:sketch="http://www.bohemiancoding.com/sketch/ns">
    <!-- Generator: Sketch 3.1 (8751) - http://www.bohemiancoding.com/sketch -->
    <title>Instagram</title>
    <desc>Created with Sketch.</desc>
    <defs></defs>
    <g id="Page-1" stroke="none" stroke-width="1" fill="none" fill-rule="evenodd" sketch:type="MSPage">
        <g id="free-flat-social-icons" sketch:type="MSLayerGroup" transform="translate(-553.000000, 0.000000)">
            <g id="Page-1" sketch:type="MSShapeGroup">
                <g id="Colour">
                    <g id="Row-1">
                        <g id="Instagram" transform="translate(554.000000, 0.000000)">
                            <path d="M-0.100433526,15 C-0.100433526,6.71572835 6.62499965,0 14.9212427,0 C23.2174859,0 29.9429191,6.71572835 29.9429191,15 C29.9429191,23.2842717 23.2174859,30 14.9212427,30 C6.62499965,30 -0.100433526,23.2842717 -0.100433526,15 L-0.100433526,15 Z" id="Shape" fill="#517FA4"></path>
                            <path d="M8.9355188,13.5990846 C8.9355188,15.8566232 8.9353007,18.1141618 8.93573695,20.3717003 C8.93573695,20.6964461 9.21732825,20.9756708 9.5425433,20.9756708 C13.1275432,20.9758886 16.7123249,20.9758886 20.2973248,20.9756708 C20.6255936,20.9756708 20.905658,20.6968817 20.905658,20.3697401 C20.9058762,18.1148151 20.905658,15.8601081 20.905658,13.6054009 L20.905658,13.558573 L19.447316,13.558573 C19.6532201,14.2156878 19.7164746,14.8841282 19.6357706,15.5654192 C19.5546305,16.2469279 19.3347668,16.8811732 18.9766158,17.4668482 C18.6182466,18.0531766 18.1536537,18.5388796 17.5848,18.9254816 C16.1103172,19.9282514 14.1690602,20.016462 12.6044944,19.139583 C11.8135958,18.6967874 11.1926117,18.0793131 10.759646,17.283675 C10.1137963,16.0964254 10.0106262,14.8503687 10.3894984,13.557484 C9.90571105,13.5579196 9.4238867,13.5579196 8.9355188,13.5579196 L8.9355188,13.5990846 Z M21.2703525,22.5858958 C21.1918298,22.6028846 21.1122165,22.6139926 21.0328213,22.6274964 L8.8096643,22.6274964 C8.7771646,22.6222692 8.7444468,22.6159528 8.7119471,22.6120323 C8.0399232,22.5257819 7.47499565,22.013507 7.32536615,21.3526896 C7.30791665,21.275587 7.2967926,21.1973953 7.282833,21.1198571 L7.282833,8.88079635 C7.28784975,8.852264 7.29373895,8.8239495 7.2976651,8.79541715 C7.3940736,8.11064135 7.89487425,7.56634915 8.57169675,7.4123617 C8.6445484,7.3958086 8.7189269,7.3857896 8.79286915,7.37250355 L21.0496164,7.37250355 C21.0779719,7.37751305 21.1061092,7.3838294 21.1349009,7.38753205 C21.8283003,7.4822768 22.3930098,8.01284735 22.5267166,8.69653415 C22.5398038,8.76318215 22.5489647,8.8302658 22.5596526,8.89713165 L22.5596526,21.1028684 C22.5485285,21.1708232 22.5389313,21.2396493 22.5258442,21.3073864 C22.4039158,21.9340085 21.8941722,22.4536888 21.2703525,22.5858958 L21.2703525,22.5858958 Z M11.8258105,14.9531722 C11.8013812,16.6827538 13.1879621,18.05383 14.8502451,18.0895499 C16.5799268,18.1265765 17.9789406,16.7465703 18.0153664,15.0681726 C18.0526647,13.3372842 16.6545234,11.9076186 14.9213519,11.9087077 C13.2270054,11.9076186 11.8495854,13.2688938 11.8258105,14.9531722 L11.8258105,14.9531722 Z M20.3184823,11.284917 C20.6419525,11.2768583 20.9054399,11.0000294 20.9054399,10.6765904 C20.905658,10.1950257 20.905658,9.71324325 20.9054399,9.2316786 C20.9054399,8.88624145 20.6317009,8.6113728 20.2862007,8.61115495 C19.8052489,8.61093715 19.324297,8.61071935 18.843127,8.61115495 C18.4984995,8.6115906 18.2238879,8.88711265 18.2236698,9.2325498 C18.2234517,9.7099762 18.2221429,10.1874026 18.2254147,10.6650468 C18.225851,10.7362687 18.2393743,10.810322 18.2620587,10.8778413 C18.3484337,11.1320186 18.5816027,11.2879663 18.8671201,11.2892731 C19.0991985,11.2897087 19.3312768,11.2890553 19.5635733,11.2890553 C19.8148461,11.2862239 20.0669914,11.2910155 20.3184823,11.284917 L20.3184823,11.284917 Z" id="Path" fill="#FFFFFF"></path>
                            <path d="M29.9429191,15 C29.9429191,23.2842717 23.2174859,30 14.9212427,30 C11.8443627,30 8.98354635,29.0762567 6.6018112,27.4913877 L23.8140904,2.90970551 C27.5309719,5.64032515 29.9429191,10.0388987 29.9429191,15 L29.9429191,15 Z" id="reflec" fill-opacity="0.08" fill="#000000"></path>
                        </g>
                    </g>
                </g>
            </g>
        </g>
    </g>
</svg>