<?xml version="1.0" encoding="UTF-8" standalone="no"?>
<svg width="30px" height="31px" viewBox="0 0 30 31" version="1.1" xmlns="http://www.w3.org/2000/svg" xmlns:xlink="http://www.w3.org/1999/xlink" xmlns:sketch="http://www.bohemiancoding.com/sketch/ns">
    <!-- Generator: Sketch 3.1 (8751) - http://www.bohemiancoding.com/sketch -->
    <title>LinkedIN</title>
    <desc>Created with Sketch.</desc>
    <defs></defs>
    <g id="Page-1" stroke="none" stroke-width="1" fill="none" fill-rule="evenodd" sketch:type="MSPage">
        <g id="free-flat-social-icons" sketch:type="MSLayerGroup" transform="translate(-316.000000, -79.000000)">
            <g id="Page-1" sketch:type="MSShapeGroup">
                <g id="Colour">
                    <g id="Row-2" transform="translate(0.000000, 80.000000)">
                        <g id="LinkedIN" transform="translate(316.000000, -0.500000)">
                            <path d="M0.224580688,15 C0.224580688,6.71572835 6.83976084,0 15,0 C23.1602392,0 29.7754193,6.71572835 29.7754193,15 C29.7754193,23.2842717 23.1602392,30 15,30 C6.83976084,30 0.224580688,23.2842717 0.224580688,15 L0.224580688,15 Z" id="Shape" fill="#007BB6"></path>
                            <path d="M11.2340196,11.8549072 L7.89041828,11.8549072 L7.89041828,22.0684768 L11.2340196,22.0684768 L11.2340196,11.8549072 L11.2340196,11.8549072 Z" id="Path" fill="#FFFFFF"></path>
                            <path d="M11.4542376,8.69543805 C11.4325363,7.69400405 10.7281458,6.931252 9.58432087,6.931252 C8.44049592,6.931252 7.69270284,7.69400405 7.69270284,8.69543805 C7.69270284,9.67612895 8.41839398,10.4608443 9.5409183,10.4608443 L9.56228572,10.4608443 C10.7281458,10.4608443 11.4542376,9.67612895 11.4542376,8.69543805 L11.4542376,8.69543805 Z" id="Path" fill="#FFFFFF"></path>
                            <path d="M23.2923251,16.2123282 C23.2923251,13.0751613 21.6428267,11.6150728 19.4425829,11.6150728 C17.6673506,11.6150728 16.8725491,12.6064064 16.4287744,13.3018448 L16.4287744,11.8551783 L13.0847725,11.8551783 C13.1288428,12.8135669 13.0847725,22.068748 13.0847725,22.068748 L16.4287744,22.068748 L16.4287744,16.364648 C16.4287744,16.0593981 16.4504757,15.7548939 16.5388834,15.5363449 C16.7805357,14.9265229 17.3307469,14.2951442 18.2544873,14.2951442 C19.4648851,14.2951442 19.9487238,15.2317051 19.9487238,16.6042113 L19.9487238,22.0684768 L23.2921916,22.0684768 L23.2923251,16.2123282 L23.2923251,16.2123282 Z" id="Path" fill="#FFFFFF"></path>
                            <path d="M29.7754193,15 C29.7754193,23.2842717 23.1602392,30 15,30 C11.9735606,30 9.15964289,29.0762567 6.81695257,27.4913877 L23.7470632,2.90970551 C27.4030122,5.64032515 29.7754193,10.0388987 29.7754193,15 L29.7754193,15 Z" id="reflec" fill-opacity="0.08" fill="#000000"></path>
                        </g>
                    </g>
                </g>
            </g>
        </g>
    </g>
</svg>