<?xml version="1.0" encoding="UTF-8" standalone="no"?>
<svg width="31px" height="30px" viewBox="0 0 31 30" version="1.1" xmlns="http://www.w3.org/2000/svg" xmlns:xlink="http://www.w3.org/1999/xlink" xmlns:sketch="http://www.bohemiancoding.com/sketch/ns">
    <!-- Generator: Sketch 3.1 (8751) - http://www.bohemiancoding.com/sketch -->
    <title>Twitter</title>
    <desc>Created with Sketch.</desc>
    <defs></defs>
    <g id="Page-1" stroke="none" stroke-width="1" fill="none" fill-rule="evenodd" sketch:type="MSPage">
        <g id="free-flat-social-icons" sketch:type="MSLayerGroup">
            <g id="Page-1" sketch:type="MSShapeGroup">
                <g id="Colour">
                    <g id="Row-1">
                        <g id="Twitter">
                            <path d="M0,15 C0,6.71572835 6.72543315,0 15.0216763,0 C23.3179195,0 30.0433526,6.71572835 30.0433526,15 C30.0433526,23.2842717 23.3179195,30 15.0216763,30 C6.72543315,30 0,23.2842717 0,15 L0,15 Z" id="Shape" fill="#4099FF"></path>
                            <path d="M14.6498837,11.9439888 L14.6813603,12.4630226 L14.1567508,12.3994675 C12.2471722,12.1558394 10.578914,11.3296222 9.1624684,9.94200115 L8.46998385,9.25348685 L8.29161665,9.76192815 C7.9138978,10.8953286 8.15521815,12.0922842 8.9421324,12.8973162 C9.36182,13.3422024 9.2673903,13.4057576 8.5434292,13.1409444 C8.29161665,13.0562041 8.07128065,12.992649 8.05029625,13.0244266 C7.97685095,13.0985743 8.2286635,14.0624943 8.4280151,14.4438252 C8.70081205,14.9734516 9.2568981,15.4924855 9.8654451,15.7996687 L10.3795624,16.0432969 L9.7710154,16.0538894 C9.18345275,16.0538894 9.1624684,16.064482 9.22542155,16.286925 C9.43526535,16.9754393 10.2641483,17.7063237 11.187461,18.0240995 L11.8379768,18.2465426 L11.2713985,18.5855035 C10.4320233,19.0727597 9.4457575,19.3481654 8.45949165,19.3693505 C7.9873431,19.379943 7.5991321,19.4223131 7.5991321,19.4540907 C7.5991321,19.560016 8.87917925,20.1531975 9.62412475,20.3862331 C11.8589612,21.0747474 14.5134852,20.7781566 16.5070013,19.6023861 C17.923447,18.7655764 19.3398926,17.1025497 20.0009006,15.4924855 C20.357635,14.6344907 20.7143695,13.0667967 20.7143695,12.3147273 C20.7143695,11.827471 20.7458461,11.7639158 21.3334087,11.1813268 C21.679651,10.8423659 22.0049089,10.4716275 22.067862,10.3657022 C22.1727839,10.1644442 22.1622918,10.1644442 21.62719,10.3445171 C20.7353539,10.662293 20.6094476,10.6199229 21.0501196,10.1432592 C21.3753775,9.80429825 21.7635885,9.1899317 21.7635885,9.0098587 C21.7635885,8.97808115 21.6062056,9.0310438 21.4278384,9.1263765 C21.238979,9.2323018 20.8192914,9.3911897 20.5045257,9.48652245 L19.9379474,9.6665954 L19.4238302,9.317042 C19.140541,9.1263765 18.7418378,8.914526 18.531994,8.8509708 C17.9968923,8.70267545 17.1785015,8.7238605 16.6958608,8.8933409 C15.384337,9.37000465 14.555454,10.5987378 14.6498837,11.9439888 L14.6498837,11.9439888 Z" id="Path" fill="#FFFFFF"></path>
                            <path d="M30.0433526,15 C30.0433526,23.2842717 23.3179194,30 15.0216763,30 C11.9447962,30 9.0839799,29.0762567 6.70224475,27.4913877 L23.9145239,2.90970551 C27.6314054,5.64032515 30.0433526,10.0388987 30.0433526,15 L30.0433526,15 Z" id="reflec" fill-opacity="0.08" fill="#000000"></path>
                        </g>
                    </g>
                </g>
            </g>
        </g>
    </g>
</svg>